HIERARCHY
ROOT joint_Root
{
	OFFSET 0.0 0.0 0.0
	CHANNELS 6 Xposition Yposition Zposition Zrotation Xrotation Yrotation 
	JOINT Hips
	{
		OFFSET 4.5925 91.4895 -427.239
		CHANNELS 6 Xposition Yposition Zposition Zrotation Xrotation Yrotation 
		JOINT Spine
		{
			OFFSET 15.7357 0.0 0.0
			CHANNELS 6 Xposition Yposition Zposition Zrotation Xrotation Yrotation 
			JOINT Chest
			{
				OFFSET 8.98455 -0.406207 0.0
				CHANNELS 6 Xposition Yposition Zposition Zrotation Xrotation Yrotation 
				JOINT Neck
				{
					OFFSET 16.3773 0.0 0.0
					CHANNELS 6 Xposition Yposition Zposition Zrotation Xrotation Yrotation 
					JOINT Head
					{
						OFFSET 6.45672 0.0 0.0
						CHANNELS 6 Xposition Yposition Zposition Zrotation Xrotation Yrotation 
						End Site
						{
							OFFSET 0.0 0.0 0.0
						}
					}
				}
				JOINT Shoulder_L
				{
					OFFSET 12.9942 -0.242716 4.98039
					CHANNELS 6 Xposition Yposition Zposition Zrotation Xrotation Yrotation 
					JOINT UpperArm_L
					{
						OFFSET 5.34809 0.0 0.0
						CHANNELS 6 Xposition Yposition Zposition Zrotation Xrotation Yrotation 
						JOINT LowerArm_L
						{
							OFFSET 24.3286 1.87007e-05 0.0
							CHANNELS 6 Xposition Yposition Zposition Zrotation Xrotation Yrotation 
							JOINT Hand_L
							{
								OFFSET 22.2916 0.0 0.0
								CHANNELS 6 Xposition Yposition Zposition Zrotation Xrotation Yrotation 
								End Site
								{
									OFFSET 0.0 0.0 0.0
								}
							}
						}
					}
				}
				JOINT Shoulder_R
				{
					OFFSET 12.9945 -0.242716 -4.98039
					CHANNELS 6 Xposition Yposition Zposition Zrotation Xrotation Yrotation 
					JOINT UpperArm_R
					{
						OFFSET -5.34813 0.0 0.0
						CHANNELS 6 Xposition Yposition Zposition Zrotation Xrotation Yrotation 
						JOINT LowerArm_R
						{
							OFFSET -24.3289 0.000322201 0.0
							CHANNELS 6 Xposition Yposition Zposition Zrotation Xrotation Yrotation 
							JOINT Hand_R
							{
								OFFSET -22.2915 -0.000108084 0.0
								CHANNELS 6 Xposition Yposition Zposition Zrotation Xrotation Yrotation 
								End Site
								{
									OFFSET 0.0 0.0 0.0
								}
							}
						}
					}
				}
			}
		}
		JOINT UpperLeg_L
		{
			OFFSET -2.19248 -6.46944 0.0
			CHANNELS 6 Xposition Yposition Zposition Zrotation Xrotation Yrotation 
			JOINT LowerLeg_L
			{
				OFFSET 39.0811 0.0 -1.23785e-05
				CHANNELS 6 Xposition Yposition Zposition Zrotation Xrotation Yrotation 
				JOINT Foot_L
				{
					OFFSET 40.9854 0.0 -1.26872e-05
					CHANNELS 6 Xposition Yposition Zposition Zrotation Xrotation Yrotation 
					JOINT Toes_L
					{
						OFFSET 11.7543 0.0 0.0
						CHANNELS 6 Xposition Yposition Zposition Zrotation Xrotation Yrotation 
						End Site
						{
							OFFSET 0.0 0.0 0.0
						}
					}
				}
			}
		}
		JOINT UpperLeg_R
		{
			OFFSET -2.19251 6.46944 0.0
			CHANNELS 6 Xposition Yposition Zposition Zrotation Xrotation Yrotation 
			JOINT LowerLeg_R
			{
				OFFSET -39.0811 -0.00228153 -0.0401928
				CHANNELS 6 Xposition Yposition Zposition Zrotation Xrotation Yrotation 
				JOINT Foot_R
				{
					OFFSET -40.9854 0.0 0.0
					CHANNELS 6 Xposition Yposition Zposition Zrotation Xrotation Yrotation 
					JOINT Toes_R
					{
						OFFSET -11.7543 0.0 0.0
						CHANNELS 6 Xposition Yposition Zposition Zrotation Xrotation Yrotation 
						End Site
						{
							OFFSET 0.0 0.0 0.0
						}
					}
				}
			}
		}
	}
}
MOTION
Frames:	9
Frame Time:	0.0333333
0.000000 0.000000 0.000000 0.000000 0.000000 -0.000000 8.149950 90.265100 1.306480 93.375000 -7.355610 11.053100 15.735700 0.000005 -0.000001 87.426400 81.802200 -89.710000 8.984550 -0.406207 -0.000000 8.602620 -0.749366 -4.506640 16.377300 -0.000001 -0.000001 8.044890 -1.993520 -3.504260 6.456720 -0.000001 -0.000000 -2.955460 -1.886850 -3.075960 12.994200 -0.242716 4.980390 -92.119100 7.303730 -73.772300 5.348090 -0.000007 -0.000001 -64.951100 31.666800 -11.568000 24.328600 0.000019 0.000005 9.375900 25.204900 -21.192700 22.291600 -0.000001 0.000005 7.884260 5.277670 0.689819 12.994500 -0.242716 -4.980390 88.492000 10.997400 -82.143000 -5.348130 -0.000001 -0.000004 -64.977500 34.766000 -10.114600 -24.328900 0.000322 -0.000009 2.321050 6.989240 -18.430400 -22.291500 -0.000108 -0.000004 13.425400 5.399100 -2.908360 -2.192480 -6.469440 -0.000000 175.693000 -19.151100 2.746190 39.081100 -0.000007 -0.000012 0.020473 -0.037985 28.322800 40.985400 -0.000006 -0.000013 7.048560 3.983550 -71.791600 11.754300 -0.000000 0.000003 -0.000187 -0.001751 -16.643700 -2.192510 6.469440 -0.000001 164.466000 14.496800 179.898000 -39.081100 -0.002282 -0.040193 -0.093162 0.153411 32.160300 -40.985400 0.000008 0.000006 -0.348051 14.939500 -70.559100 -11.754300 -0.000006 -0.000006 -0.003049 -0.041161 -18.247100
0.000000 0.000000 0.000000 0.000000 0.000000 -0.000000 8.125330 90.262100 1.392710 93.370600 -7.287580 11.125700 15.735700 0.000005 -0.000001 87.310700 81.815700 -89.612900 8.984550 -0.406207 -0.000000 8.573560 -0.780581 -4.541580 16.377300 -0.000001 -0.000001 8.368780 -2.054150 -3.574970 6.456720 -0.000001 -0.000000 -2.660880 -1.909780 -3.087650 12.994200 -0.242716 4.980390 -92.113800 7.286190 -73.773800 5.348090 -0.000007 -0.000001 -64.373400 31.737900 -12.383800 24.328600 0.000019 0.000005 9.521820 24.987300 -21.657000 22.291600 -0.000001 0.000005 7.959130 5.279950 0.627607 12.994500 -0.242716 -4.980390 88.488300 10.984100 -82.114300 -5.348130 -0.000001 -0.000004 -64.612000 34.662300 -10.578100 -24.328900 0.000322 -0.000009 2.293670 6.760040 -18.799800 -22.291500 -0.000108 -0.000004 13.590300 5.400490 -2.953360 -2.192480 -6.469440 -0.000000 175.761000 -19.128400 2.914870 39.081100 -0.000007 -0.000012 0.015621 -0.029012 28.299200 40.985400 -0.000006 -0.000013 7.031850 4.024080 -71.843300 11.754300 -0.000000 0.000003 -0.000204 -0.001886 -16.648700 -2.192510 6.469440 -0.000001 164.430000 14.570700 -179.928000 -39.081100 -0.002282 -0.040193 -0.086516 0.142843 32.160000 -40.985400 0.000008 0.000006 -0.211143 14.962100 -70.672400 -11.754300 -0.000006 -0.000006 -0.002925 -0.039753 -18.189800
0.000000 0.000000 0.000000 0.000000 0.000000 -0.000000 8.101900 90.236900 1.500270 93.376000 -7.357980 11.188900 15.735700 0.000005 -0.000001 87.414100 81.843900 -89.729100 8.984550 -0.406207 -0.000000 8.519140 -0.747704 -4.570000 16.377300 -0.000001 -0.000001 8.733490 -2.052580 -3.605810 6.456720 -0.000001 -0.000000 -2.461250 -1.836910 -3.204040 12.994200 -0.242716 4.980390 -92.119400 7.303590 -73.769600 5.348090 -0.000007 -0.000001 -63.657500 31.878300 -13.289000 24.328600 0.000019 0.000005 9.641130 24.699300 -22.123700 22.291600 -0.000001 0.000005 8.018740 5.279730 0.633653 12.994500 -0.242716 -4.980390 88.487900 10.944000 -82.084400 -5.348130 -0.000001 -0.000004 -64.259700 34.494900 -11.097700 -24.328900 0.000322 -0.000009 2.342110 6.751210 -19.191500 -22.291500 -0.000108 -0.000004 13.486900 5.403130 -3.039380 -2.192480 -6.469440 -0.000000 175.795000 -19.118000 3.025200 39.081100 -0.000007 -0.000012 0.016070 -0.029756 28.371100 40.985400 -0.000006 -0.000013 6.992340 3.945140 -71.954300 11.754300 -0.000000 0.000003 -0.000189 -0.001766 -16.644300 -2.192510 6.469440 -0.000001 164.392000 14.512000 -179.840000 -39.081100 -0.002282 -0.040193 -0.092483 0.151917 32.230600 -40.985400 0.000008 0.000006 -0.251630 15.006000 -70.767800 -11.754300 -0.000006 -0.000006 -0.003135 -0.042118 -18.286000
0.000000 0.000000 0.000000 0.000000 0.000000 -0.000000 8.066710 90.220500 1.631200 93.362300 -7.370920 11.269700 15.735700 0.000005 -0.000001 87.509800 81.885800 -89.832100 8.984550 -0.406207 -0.000000 8.437240 -0.715471 -4.587500 16.377300 -0.000001 -0.000001 9.070950 -1.993630 -3.682440 6.456720 -0.000001 -0.000000 -2.153760 -1.745070 -3.262280 12.994200 -0.242716 4.980390 -92.115800 7.262090 -73.708400 5.348090 -0.000007 -0.000001 -63.088900 31.802200 -14.159000 24.328600 0.000019 0.000005 9.763460 24.472300 -22.557000 22.291600 -0.000001 0.000005 8.050680 5.283320 0.535447 12.994500 -0.242716 -4.980390 88.471500 10.916700 -81.979800 -5.348130 -0.000001 -0.000004 -63.982900 34.199100 -11.513100 -24.328900 0.000322 -0.000009 2.268810 6.371790 -19.654700 -22.291500 -0.000108 -0.000004 13.599200 5.405080 -3.103280 -2.192480 -6.469440 -0.000000 175.871000 -19.075200 3.203980 39.081100 -0.000007 -0.000012 0.010805 -0.019984 28.398600 40.985400 -0.000006 -0.000013 6.952070 3.909850 -72.058600 11.754300 -0.000000 0.000003 -0.000208 -0.001912 -16.649600 -2.192510 6.469440 -0.000001 164.394000 14.464300 -179.686000 -39.081100 -0.002282 -0.040193 -0.081679 0.134512 32.282100 -40.985400 0.000008 0.000006 -0.136711 14.954500 -70.921900 -11.754300 -0.000006 -0.000006 -0.002865 -0.039063 -18.161700
0.000000 0.000000 0.000000 0.000000 0.000000 -0.000000 8.029440 90.194100 1.775290 93.325600 -7.405660 11.356700 15.735700 0.000005 -0.000001 87.594800 81.953300 -89.908200 8.984550 -0.406207 -0.000000 8.303930 -0.683232 -4.572840 16.377300 -0.000001 -0.000001 9.501720 -1.932130 -3.709950 6.456720 -0.000001 -0.000000 -1.796180 -1.585350 -3.461980 12.994200 -0.242716 4.980390 -92.128000 7.255040 -73.604100 5.348090 -0.000007 -0.000001 -62.580400 31.529600 -14.860800 24.328600 0.000019 0.000005 9.891470 24.146300 -23.087200 22.291600 -0.000001 0.000005 8.237920 5.282640 0.554008 12.994500 -0.242716 -4.980390 88.456000 10.823400 -81.831400 -5.348130 -0.000001 -0.000004 -63.919100 33.615800 -11.751700 -24.328900 0.000322 -0.000009 2.335540 6.365740 -20.204700 -22.291500 -0.000108 -0.000004 13.854700 5.407400 -3.179480 -2.192480 -6.469440 -0.000000 175.984000 -19.064100 3.359450 39.081100 -0.000007 -0.000012 0.010228 -0.018839 28.497200 40.985400 -0.000006 -0.000013 6.910570 3.880870 -72.202500 11.754300 -0.000000 0.000003 -0.000208 -0.001915 -16.649700 -2.192510 6.469440 -0.000001 164.407000 14.411100 -179.521000 -39.081100 -0.002282 -0.040193 -0.082353 0.135219 32.351100 -40.985400 0.000008 0.000006 -0.037338 14.933700 -71.094000 -11.754300 -0.000006 -0.000006 -0.002924 -0.039741 -18.189300
0.000000 0.000000 0.000000 0.000000 0.000000 -0.000000 7.992350 90.176900 1.923310 93.271600 -7.417750 11.421900 15.735700 0.000005 -0.000001 87.542300 82.042000 -89.848400 8.984550 -0.406207 -0.000000 8.126170 -0.686808 -4.558890 16.377300 -0.000001 -0.000001 9.931190 -1.842770 -3.789140 6.456720 -0.000001 -0.000000 -1.423040 -1.415110 -3.508980 12.994200 -0.242716 4.980390 -92.135300 7.203600 -73.440600 5.348090 -0.000007 -0.000001 -62.228700 30.973700 -15.332800 24.328600 0.000019 0.000005 10.106000 23.907500 -23.739900 22.291600 -0.000001 0.000005 8.310100 5.291880 0.298980 12.994500 -0.242716 -4.980390 88.437900 10.756500 -81.686900 -5.348130 -0.000001 -0.000004 -63.907200 32.838900 -11.846900 -24.328900 0.000322 -0.000009 2.295260 6.047030 -20.839500 -22.291500 -0.000108 -0.000004 13.951600 5.409030 -3.233160 -2.192480 -6.469440 -0.000000 176.098000 -19.022100 3.542950 39.081100 -0.000007 -0.000012 0.005671 -0.010429 28.532700 40.985400 -0.000006 -0.000013 6.855580 3.806370 -72.328400 11.754300 -0.000000 0.000003 -0.000207 -0.001905 -16.649400 -2.192510 6.469440 -0.000001 164.427000 14.432900 -179.338000 -39.081100 -0.002282 -0.040193 -0.074943 0.123450 32.365700 -40.985400 0.000008 0.000006 0.044041 14.917900 -71.228300 -11.754300 -0.000006 -0.000006 -0.002782 -0.038106 -18.122700
0.000000 0.000000 0.000000 0.000000 0.000000 -0.000000 7.956430 90.154000 2.089950 93.231300 -7.392330 11.489600 15.735700 0.000005 -0.000001 87.390800 82.114800 -89.697700 8.984550 -0.406207 -0.000000 7.978070 -0.719203 -4.559070 16.377300 -0.000001 -0.000001 10.262400 -1.772410 -3.801830 6.456720 -0.000001 -0.000000 -1.078430 -1.261950 -3.595920 12.994200 -0.242716 4.980390 -92.154500 7.177800 -73.243200 5.348090 -0.000007 -0.000001 -61.902600 30.037200 -15.656100 24.328600 0.000019 0.000005 10.525200 23.840400 -24.686700 22.291600 -0.000001 0.000005 8.198360 5.297860 0.132067 12.994500 -0.242716 -4.980390 88.403700 10.713200 -81.474300 -5.348130 -0.000001 -0.000004 -63.911100 31.659800 -11.926100 -24.328900 0.000322 -0.000009 2.235390 5.712300 -21.423300 -22.291500 -0.000108 -0.000004 13.981800 5.417550 -3.516550 -2.192480 -6.469440 -0.000000 176.197000 -18.930200 3.721870 39.081100 -0.000007 -0.000012 0.001385 -0.002539 28.593000 40.985400 -0.000006 -0.000013 6.815310 3.786160 -72.471300 11.754300 -0.000000 0.000003 -0.000225 -0.002046 -16.654500 -2.192510 6.469440 -0.000001 164.421000 14.441200 -179.135000 -39.081100 -0.002282 -0.040193 -0.074668 0.122832 32.404500 -40.985400 0.000008 0.000006 0.240374 14.913100 -71.439400 -11.754300 -0.000006 -0.000006 -0.002825 -0.038610 -18.143200
0.000000 0.000000 0.000000 0.000000 0.000000 -0.000000 7.929280 90.133500 2.236180 93.204300 -7.430560 11.529300 15.735700 0.000005 -0.000001 87.339100 82.212400 -89.648700 8.984550 -0.406207 -0.000000 7.782470 -0.720524 -4.565460 16.377300 -0.000001 -0.000001 10.620300 -1.726430 -3.841770 6.456720 -0.000001 -0.000000 -0.749566 -1.194200 -3.679090 12.994200 -0.242716 4.980390 -92.193000 7.187910 -72.983500 5.348090 -0.000007 -0.000001 -61.591800 28.743300 -15.819200 24.328600 0.000019 0.000005 10.949200 23.794900 -25.617500 22.291600 -0.000001 0.000005 8.347230 5.302610 -0.001096 12.994500 -0.242716 -4.980390 88.359700 10.661900 -81.201300 -5.348130 -0.000001 -0.000004 -63.793800 30.457100 -12.014400 -24.328900 0.000322 -0.000009 2.176750 5.404210 -21.987700 -22.291500 -0.000108 -0.000004 14.022000 5.416200 -3.471400 -2.192480 -6.469440 -0.000000 176.267000 -18.907700 3.869050 39.081100 -0.000007 -0.000012 -0.001236 0.002265 28.624300 40.985400 -0.000006 -0.000013 6.768710 3.712980 -72.593000 11.754300 -0.000000 0.000003 -0.000212 -0.001944 -16.650800 -2.192510 6.469440 -0.000001 164.422000 14.408200 -178.999000 -39.081100 -0.002282 -0.040193 -0.074100 0.121836 32.425700 -40.985400 0.000008 0.000006 0.234727 14.900100 -71.552300 -11.754300 -0.000006 -0.000006 -0.002890 -0.039350 -18.173400
0.000000 0.000000 0.000000 0.000000 0.000000 -0.000000 7.893990 90.119300 2.396020 93.187900 -7.516380 11.531000 15.735700 0.000005 -0.000001 87.424400 82.329100 -89.735500 8.984550 -0.406207 -0.000000 7.551130 -0.682494 -4.572400 16.377300 -0.000001 -0.000001 11.027500 -1.733140 -3.828360 6.456720 -0.000001 -0.000000 -0.439705 -1.184000 -3.853060 12.994200 -0.242716 4.980390 -92.225300 7.171920 -72.711400 5.348090 -0.000007 -0.000001 -61.250800 27.238300 -15.955900 24.328600 0.000019 0.000005 11.313000 23.830300 -26.342300 22.291600 -0.000001 0.000005 8.373680 5.308660 -0.171738 12.994500 -0.242716 -4.980390 88.325400 10.591600 -80.962400 -5.348130 -0.000001 -0.000004 -63.457100 29.458400 -12.137900 -24.328900 0.000322 -0.000009 2.144680 5.226710 -22.357100 -22.291500 -0.000108 -0.000004 14.190900 5.418190 -3.538120 -2.192480 -6.469440 -0.000000 176.327000 -18.913000 3.998680 39.081100 -0.000007 -0.000012 -0.004331 0.007940 28.613500 40.985400 -0.000006 -0.000013 6.718450 3.656430 -72.697900 11.754300 -0.000000 0.000003 -0.000236 -0.002126 -16.657400 -2.192510 6.469440 -0.000001 164.462000 14.299900 -178.914000 -39.081100 -0.002282 -0.040193 -0.064476 0.106606 32.445100 -40.985400 0.000008 0.000006 0.342097 14.857100 -71.704100 -11.754300 -0.000006 -0.000006 -0.002707 -0.037243 -18.087600
